<svg xmlns="http://www.w3.org/2000/svg" shape-rendering="geometricPrecision" width="100px" height="100px" viewBox="0 0 1024 1024">
  <metadata>null</metadata>

<path d=" M 45.906 692.604 C 47.296 686.201 48.521 679.754 51.906 673.999 C 56.103 666.865 61.585 660.617 68.592 656.125 C 81.15 648.075 97.515 646.49 111.76 649.9 C 118.286 651.462 124.094 653.987 129.685 657.692 C 131.641 658.988 134.055 660.362 135.439 662.312 C 132.725 665.929 129.854 669.422 127.192 673.091 C 126.506 674.036 125.933 675.043 125.319 676.033 C 125.267 676.119 124.876 676.811 124.753 676.771 C 123.207 675.512 121.943 673.939 120.332 672.749 C 115.758 669.366 110.685 667.651 105.205 666.44 C 99.307 665.136 92.444 665.135 86.759 667.322 C 81.38 669.392 76.01 672.858 72.456 677.47 C 62.383 690.544 62.273 710.26 73.854 722.715 C 82.252 731.747 94.317 733.639 105.999 731.753 C 111.083 730.932 116.952 729.024 120.626 725.242 C 120.987 723.636 120.589 721.854 120.487 720.229 C 120.354 718.109 120.409 715.959 120.397 713.834 C 120.39 712.694 121.048 710.402 120.729 709.412 C 118.187 709.947 115.107 709.42 112.5 709.406 C 106.842 709.376 101.191 709.339 95.537 709.39 C 94.779 708.602 95.329 706.115 95.338 705.001 C 95.366 701.1 95.439 697.155 95.252 693.259 C 104.828 693.065 114.43 693.174 124.01 693.137 C 128.509 693.119 133.455 692.341 137.908 692.912 C 137.985 702.769 137.782 712.638 137.792 722.499 C 137.795 725.241 137.81 727.983 137.87 730.725 C 137.895 731.886 138.176 733.598 137.705 734.675 C 133.36 736.647 129.481 740.081 125.274 742.418 C 118.628 746.111 110.99 748.63 103.451 749.569 C 87.015 751.618 67.88 745.261 57.089 732.418 C 47.997 721.597 44.335 706.499 45.906 692.604 Z" opacity="1" fill="rgb(167,43,42)" fill-rule="evenodd"/>
<path d=" M 165.76 649.826 C 171.873 649.701 178.111 649.534 184.219 649.789 C 184.073 671.518 184.252 693.266 184.22 715.002 C 184.21 722.168 184.196 729.335 184.203 736.501 C 184.206 739.915 183.632 743.969 184.317 747.308 C 180.008 746.748 175.332 747.15 170.994 747.233 C 169.55 747.26 166.779 747.87 165.599 747.092 C 165.603 726.066 165.648 705.036 165.628 684.008 C 165.62 676.006 165.665 668.006 165.75 660.005 C 165.786 656.638 165.475 653.176 165.76 649.826 Z" opacity="1" fill="rgb(167,45,45)" fill-rule="evenodd"/>
<path d=" M 217.781 649.865 C 222.02 649.874 226.263 649.85 230.504 649.869 C 231.891 649.875 234.185 649.409 235.415 650.009 C 238.111 654.902 242.614 659.291 245.971 663.77 C 254.677 675.387 263.88 686.627 272.473 698.333 C 275.572 702.554 278.838 706.652 281.965 710.854 C 282.813 711.993 283.693 713.122 284.511 714.282 C 284.877 714.801 285.26 715.718 285.871 715.971 C 286.409 714.978 285.879 712.427 285.884 711.24 C 285.902 706.964 285.841 702.678 285.913 698.4 C 286.184 682.189 286.23 665.953 286.241 649.737 C 292.415 649.722 298.638 650.028 304.807 649.718 C 304.445 656.606 304.801 663.597 304.817 670.498 C 304.848 683.166 304.834 695.835 304.911 708.504 C 304.963 717.171 304.941 725.838 304.916 734.505 C 304.904 738.592 304.52 742.865 304.854 746.929 C 303.232 747.418 300.771 746.935 299.044 746.938 C 295.375 746.945 291.104 747.815 287.508 747.021 C 285.979 745.897 285.037 743.807 283.882 742.321 C 281.119 738.771 278.396 735.196 275.65 731.634 C 267.765 721.403 259.769 711.214 252.238 700.717 C 248.225 695.124 243.926 689.724 240.015 684.056 C 239.147 682.797 238.344 681.485 237.366 680.307 C 236.929 679.781 236.554 678.686 235.968 679.369 C 236.421 685.22 236.185 691.136 236.202 697 C 236.235 708 236.17 718.999 236.18 729.999 C 236.186 735.708 235.687 741.75 236.337 747.418 C 230.311 746.762 224.003 747.017 217.961 747.296 C 217.549 746.848 217.729 746.096 217.753 745.499 C 217.812 744 217.846 742.504 217.85 741.003 C 217.864 735.001 217.926 729 217.905 722.997 C 217.85 706.831 217.886 690.665 217.855 674.499 C 217.839 666.338 217.352 658.006 217.781 649.865 Z" opacity="1" fill="rgb(166,44,42)" fill-rule="evenodd"/>
<path d=" M 386.702 649.678 C 389.954 649.409 393.242 649.73 396.506 649.749 C 403.338 649.787 410.17 649.789 417.003 649.829 C 430.436 649.908 445.515 648.283 456.953 656.873 C 473.947 669.636 473.314 697.728 455.807 709.702 C 453.115 711.543 450.157 713.114 446.977 713.914 C 451.1 720.81 456.543 727.195 461.226 733.738 C 464.523 738.344 467.488 744.054 471.58 747.982 C 470.185 748.364 467.983 747.785 466.503 747.748 C 462.671 747.652 458.83 747.757 454.998 747.799 C 453.547 747.815 450.54 748.389 449.299 747.59 C 448.308 746.951 447.687 745.783 446.973 744.88 C 445.282 742.743 443.817 740.435 442.213 738.234 C 436.928 730.984 431.725 723.795 426.857 716.252 C 422.32 716.324 417.782 716.303 413.244 716.312 C 410.883 716.317 408.34 716.025 406.014 716.487 C 405.633 726.854 405.619 737.358 405.868 747.733 C 399.766 746.806 393.537 748.166 387.495 747.446 C 386.472 746.074 387.213 742.223 387.221 740.508 C 387.249 734.179 387.306 727.85 387.248 721.52 C 387.106 706.179 386.892 690.84 386.832 675.499 C 386.798 666.916 387.259 658.246 386.702 649.678 Z M 405.75 667.586 C 406.277 678.086 405.888 688.693 405.748 699.201 C 408.114 698.903 410.617 699.129 413.002 699.085 C 418.28 698.986 423.559 698.995 428.837 699 C 432.21 699.003 435.968 699.423 439.206 698.285 C 442.678 697.065 446.3 695.005 448.261 691.771 C 452.805 684.276 449.748 673.537 442.074 669.54 C 437.459 667.137 432.425 667.309 427.353 667.376 C 420.232 667.472 412.844 668.072 405.75 667.586 Z" opacity="1" fill="rgb(17,19,23)" fill-rule="evenodd"/>
<path d=" M 509.984 454.984 C 509.553 456.341 504.818 455.378 503.505 455.365 C 496.337 455.291 489.167 455.257 481.999 455.294 C 462.697 455.393 443.397 455.779 424.097 455.606 C 416.874 455.541 409.653 455.363 402.429 455.303 C 398.946 455.273 395.212 454.885 391.765 455.365 C 390.951 454.207 391.686 451.288 391.762 449.907 C 392.043 444.827 392.882 439.821 394.123 434.896 C 398.885 416.001 411.676 398.215 428.662 388.442 C 432.527 386.219 436.478 384.511 440.596 382.828 C 442.18 382.18 444.325 381.12 446.035 381.755 C 448.468 383.723 450.367 386.356 452.418 388.698 C 455.922 392.698 459.444 396.682 462.921 400.707 C 472.758 412.097 482.784 423.331 492.63 434.717 C 496.775 439.51 500.983 444.257 505.028 449.136 C 506.317 450.691 508.085 454.314 509.984 454.984 Z" opacity="1" fill="rgb(79,17,15)" fill-rule="evenodd"/>
<path d=" M 391.765 455.365 C 395.212 454.885 398.946 455.273 402.429 455.303 C 409.653 455.363 416.874 455.541 424.097 455.606 C 443.397 455.779 462.697 455.393 481.999 455.294 C 489.167 455.257 496.337 455.291 503.505 455.365 C 504.818 455.378 509.553 456.341 509.984 454.984 C 510.467 454.98 510.928 454.921 511.41 454.887 C 512.798 456.127 517.18 455.334 518.997 455.307 C 525.997 455.207 532.999 455.28 539.999 455.208 C 560.992 454.993 581.989 455.214 602.983 455.059 C 608.971 455.015 614.96 454.89 620.949 454.894 C 623.246 454.896 626.421 454.354 628.521 455.427 C 629.58 457.081 629.177 459.777 629.005 461.614 C 628.825 463.532 628.965 465.493 628.638 467.428 C 628.117 470.511 626.973 473.54 626.469 476.609 C 626.373 477.194 626.806 477.724 626.681 478.38 C 620.451 501.406 599.246 521.716 575.483 525.227 C 573.114 525.558 571.592 525.778 569.476 524.758 C 568.062 523.105 566.322 521.781 564.852 520.179 C 560.571 515.514 556.541 510.595 552.38 505.822 C 543.259 495.361 534.891 484.254 525.613 473.928 C 522.01 469.918 518.641 465.583 515.382 461.293 C 514.08 459.58 512.358 456.536 510.341 455.702 C 508.734 456.691 507.719 459.058 506.512 460.506 C 503.471 464.156 500.452 467.824 497.363 471.434 C 486.631 483.976 475.975 496.574 465.226 509.094 C 462.078 512.761 458.918 516.504 456.011 520.365 C 454.579 522.266 452.777 524.876 450.508 525.671 C 445.303 524.933 440.023 524.115 435.074 522.245 C 415.425 514.819 401.471 497.901 395.103 478.177 C 393.405 472.918 392.629 467.653 391.921 462.196 C 391.659 460.179 390.997 457.302 391.765 455.365 Z" opacity="1" fill="rgb(168,41,42)" fill-rule="evenodd"/>
<path d=" M 511.002 287.668 C 509.722 299.915 510.699 312.697 510.615 325.013 C 510.434 351.343 510.554 377.681 510.599 404.012 C 510.615 413.512 510.573 423.013 510.666 432.512 C 510.689 434.84 510.728 437.168 510.771 439.495 C 510.789 440.468 511.163 441.528 510.336 442.177 C 504.525 436.865 499.822 430.175 494.566 424.326 C 483.295 411.779 471.964 399.271 460.557 386.847 C 455.979 381.86 451.206 376.924 447.097 371.536 C 444.823 368.553 442.584 365.498 441.936 361.727 C 440.152 351.353 447.089 343.732 453.768 336.882 C 465.562 324.785 477.275 312.582 489.006 300.423 C 494.384 294.85 502.19 285.71 511.002 287.668 Z" opacity="1" fill="rgb(184,54,50)" fill-rule="evenodd"/>
<path d=" M 575.483 525.227 C 574.018 525.886 572.068 525.728 570.496 525.748 C 566.397 525.801 562.269 525.211 558.257 524.387 C 544.233 521.504 532.451 513.593 523.114 502.931 C 519.185 498.445 516.705 492.756 512.785 488.34 C 512.563 488.254 512.264 487.895 512.119 488.083 C 512.109 488.095 512.212 489.418 512.236 489.667 C 512.358 490.963 512.666 492.224 512.865 493.507 C 512.047 493.723 510.663 493.668 510.305 494.628 C 510.108 495.156 510.62 495.567 510.72 496.038 C 510.985 497.28 510.961 498.741 511.027 500.013 C 511.269 504.691 511.049 509.403 511.033 514.086 C 510.979 530.721 510.298 547.358 510.282 564.007 C 510.278 568.673 510.298 573.34 510.272 578.006 C 510.263 579.722 509.791 582.344 510.477 583.921 C 506.759 584.236 502.752 583.792 498.996 583.8 C 489.997 583.82 480.998 583.837 471.999 583.849 C 467.636 583.855 463.265 583.807 458.903 583.902 C 456.466 583.956 453.869 584.562 451.464 584.051 C 453.522 581.798 456.754 580.196 459.186 578.331 C 464.038 574.61 468.74 570.394 472.981 565.989 C 487.443 550.967 496.506 532.09 502.869 512.483 C 505.038 505.8 507.787 498.508 508.319 491.46 C 508.457 489.632 510.017 487.41 509.487 485.655 C 508.585 485.861 508.076 488.01 507.698 488.773 C 506.151 491.897 504.056 494.805 502.04 497.637 C 495.727 506.51 488.172 513.366 478.864 518.985 C 476.364 520.44 473.306 522.227 470.46 522.816 C 467.713 523.301 465.144 524.262 462.423 524.799 C 460.768 525.125 459.049 524.783 457.457 525.577 C 455.159 525.71 452.803 525.943 450.508 525.671 C 452.777 524.876 454.579 522.266 456.011 520.365 C 458.918 516.504 462.078 512.761 465.226 509.094 C 475.975 496.574 486.631 483.976 497.363 471.434 C 500.452 467.824 503.471 464.156 506.512 460.506 C 507.719 459.058 508.734 456.691 510.341 455.702 C 512.358 456.536 514.08 459.58 515.382 461.293 C 518.641 465.583 522.01 469.918 525.613 473.928 C 534.891 484.254 543.259 495.361 552.38 505.822 C 556.541 510.595 560.571 515.514 564.852 520.179 C 566.322 521.781 568.062 523.105 569.476 524.758 C 571.592 525.778 573.114 525.558 575.483 525.227 Z" opacity="1" fill="rgb(106,26,24)" fill-rule="evenodd"/>
<path d=" M 470.46 522.816 C 469.531 523.387 468.43 523.398 467.414 523.724 C 464.052 524.801 460.988 525.379 457.457 525.577 C 459.049 524.783 460.768 525.125 462.423 524.799 C 465.144 524.262 467.713 523.301 470.46 522.816 Z" opacity="1" fill="rgb(156,142,145)" fill-rule="evenodd"/>
<path d=" M 496.649 649.7 C 502.777 649.07 509.148 649.338 515.299 649.577 C 515.902 650.922 515.415 653.228 515.41 654.699 C 515.398 658.636 515.425 662.572 515.429 666.508 C 515.438 676.112 515.54 685.722 515.442 695.325 C 515.35 704.289 514.994 713.437 519.525 721.489 C 527.876 736.331 554.155 735.196 561.934 720.337 C 566.371 711.862 565.708 702.265 565.73 692.972 C 565.765 678.588 566.003 664.182 565.63 649.803 C 566.2 648.913 569.168 649.349 570.199 649.338 C 574.782 649.291 579.965 648.628 584.486 649.272 C 583.839 655.036 584.264 661.194 584.296 666.999 C 584.349 676.663 584.354 686.331 584.303 695.995 C 584.245 707.154 583.789 717.76 578.665 727.961 C 568.646 747.906 543.064 754.332 523.056 746.926 C 514.99 743.94 507.704 738.763 503.388 731.184 C 496.787 719.592 496.746 707.366 496.747 694.404 C 496.747 684.935 496.592 675.466 496.578 665.997 C 496.57 660.577 496.866 655.113 496.649 649.7 Z" opacity="1" fill="rgb(17,19,22)" fill-rule="evenodd"/>
<path d=" M 510.336 442.177 C 511.163 441.528 510.789 440.468 510.771 439.495 C 510.728 437.168 510.689 434.84 510.666 432.512 C 510.573 423.013 510.615 413.512 510.599 404.012 C 510.554 377.681 510.434 351.343 510.615 325.013 C 510.699 312.697 509.722 299.915 511.002 287.668 C 519.731 287.348 526.301 295.157 532.032 300.774 C 539.256 307.853 546.205 315.202 553.267 322.436 C 558.744 328.046 564.504 333.621 569.514 339.652 C 574.898 346.134 580.427 352.291 579.229 361.424 C 578.504 366.952 573.471 370.867 570.124 374.88 C 561.504 385.214 552.65 395.613 543.441 405.426 C 534.833 414.6 526.35 424.126 518.206 433.712 C 516.309 435.945 514.177 438.045 512.435 440.403 C 511.994 440.999 511.178 442.721 510.336 442.177 Z" opacity="1" fill="rgb(20,20,21)" fill-rule="evenodd"/>
<path d=" M 512.865 493.507 C 513.603 499.063 515.495 504.783 517.11 510.142 C 522.72 528.764 531.569 546.187 544.002 561.182 C 549.225 567.482 555.589 573.543 562.401 578.103 C 564.473 579.49 566.484 580.986 568.471 582.49 C 568.969 582.868 570.429 583.325 570.515 583.978 C 569.001 584.424 566.616 583.946 565.007 583.929 C 560.671 583.884 556.336 583.831 551.999 583.818 C 538.159 583.776 524.316 583.782 510.477 583.921 C 509.791 582.344 510.263 579.722 510.272 578.006 C 510.298 573.34 510.278 568.673 510.282 564.007 C 510.298 547.358 510.979 530.721 511.033 514.086 C 511.049 509.403 511.269 504.691 511.027 500.013 C 510.961 498.741 510.985 497.28 510.72 496.038 C 510.62 495.567 510.108 495.156 510.305 494.628 C 510.663 493.668 512.047 493.723 512.865 493.507 Z" opacity="1" fill="rgb(15,17,18)" fill-rule="evenodd"/>
<path d=" M 511.41 454.887 C 511.836 454.705 512.138 453.748 512.499 453.317 C 513.502 452.122 514.562 450.961 515.595 449.791 C 519.469 445.401 523.531 441.155 527.239 436.621 C 531.354 431.589 535.966 426.881 540.267 422.004 C 547.109 414.246 553.592 406.173 560.352 398.345 C 563.755 394.404 567.19 390.49 570.652 386.602 C 572.16 384.91 573.542 382.464 575.553 381.358 C 578.252 381.284 580.936 382.857 583.325 383.938 C 589.16 386.579 594.677 389.195 599.644 393.302 C 618.243 408.677 629.84 430.601 630.32 454.995 C 629.731 455.207 629.151 455.424 628.521 455.427 C 626.421 454.354 623.246 454.896 620.949 454.894 C 614.96 454.89 608.971 455.015 602.983 455.059 C 581.989 455.214 560.992 454.993 539.999 455.208 C 532.999 455.28 525.997 455.207 518.997 455.307 C 517.18 455.334 512.798 456.127 511.41 454.887 Z" opacity="1" fill="rgb(128,29,30)" fill-rule="evenodd"/>
<path d=" M 615.996 650.613 C 616.062 649.964 616.054 650.369 615.884 649.405 C 621.067 648.671 626.764 649.318 632.008 649.269 C 633.466 649.256 636.772 648.652 637.95 649.432 C 640.372 655.022 643.837 660.411 646.802 665.738 C 651.52 674.212 655.9 682.878 660.492 691.42 C 663.361 696.756 666.735 702.339 668.684 708.09 C 669.272 708.091 670.316 705.235 670.617 704.664 C 672.432 701.218 674.127 697.697 675.996 694.279 C 680.199 686.591 683.873 678.642 687.956 670.895 C 691.769 663.658 695.942 656.612 699.417 649.201 C 706.653 649.303 714.031 649.769 721.255 649.195 C 721.677 657.231 721.182 665.446 721.188 673.501 C 721.2 689.336 721.282 705.171 721.228 721.006 C 721.198 729.621 720.348 738.716 721.226 747.28 C 714.979 747.009 708.719 747.404 702.477 747.351 C 702.337 743.271 702.721 739.101 702.724 735.005 C 702.733 723.5 702.737 712.001 702.869 700.497 C 702.922 695.829 702.963 691.159 702.936 686.491 C 702.921 684.01 703.184 681.351 702.504 678.959 C 700.086 685.845 696.217 692.509 692.738 698.918 C 686.781 709.892 680.452 720.867 675.231 732.212 C 674.135 732.618 672.408 732.378 671.237 732.367 C 668.347 732.341 665.372 732.178 662.499 732.506 C 659.982 729.994 658.69 725.382 656.997 722.264 C 652.254 713.529 647.845 704.615 643.151 695.852 C 641.093 692.01 638.884 688.189 637.041 684.24 C 636.414 682.898 635.596 681.607 635.011 680.258 C 634.778 679.719 634.88 678.838 634.397 678.43 C 634.261 678.314 634.289 678.771 634.235 678.942 C 633.997 682.104 634.344 685.318 634.332 688.491 C 634.296 697.998 634.568 707.489 634.633 716.999 C 634.674 722.995 634.669 728.998 634.592 734.994 C 634.54 739.088 634.275 743.355 634.832 747.435 C 628.577 747.538 622.22 746.682 615.972 747.322 C 615.539 745.454 616.132 742.941 616.129 741.008 C 616.12 735.685 616.266 730.318 616.044 725 C 615.448 710.725 615.644 696.192 615.936 681.902 C 616.147 671.53 616.772 660.971 615.996 650.613 Z" opacity="1" fill="rgb(15,18,21)" fill-rule="evenodd"/>
<path d=" M 628.521 455.427 C 629.151 455.424 629.731 455.207 630.32 454.995 C 630.594 461.077 630.159 467.211 628.334 473.029 C 627.803 474.722 627.605 476.858 626.681 478.38 C 626.806 477.724 626.373 477.194 626.469 476.609 C 626.973 473.54 628.117 470.511 628.638 467.428 C 628.965 465.493 628.825 463.532 629.005 461.614 C 629.177 459.777 629.58 457.081 628.521 455.427 Z" opacity="1" fill="rgb(168,106,110)" fill-rule="evenodd"/>
<path d=" M 754.654 649.146 C 759.743 648.399 765.344 649.304 770.508 649.177 C 771.985 649.14 775.319 648.518 776.516 649.327 C 778.79 654.789 781.955 659.964 784.774 665.159 C 789.677 674.196 794.526 683.264 799.492 692.268 C 801.573 696.041 803.264 699.977 805.088 703.874 C 805.667 705.109 806.19 707.632 807.124 708.504 C 808.187 707.615 808.792 705.276 809.474 704.036 C 811.63 700.116 813.463 696.04 815.466 692.043 C 822.615 677.776 829.608 663.174 837.484 649.299 C 838.999 648.547 842.286 649.188 844.011 649.188 C 849.18 649.187 854.434 648.841 859.593 649.125 C 859.024 655.344 859.399 661.888 859.416 668.154 C 859.444 678.573 859.466 688.994 859.45 699.412 C 859.434 709.269 859.49 719.095 859.479 728.952 C 859.472 734.998 859.066 741.266 859.745 747.284 C 855.62 746.473 850.64 746.929 846.451 747.103 C 844.743 747.174 842.788 747.499 841.111 747.196 C 841.618 731.993 841.241 716.72 841.286 701.508 C 841.3 696.506 841.362 691.506 841.306 686.505 C 841.286 684.719 841.285 682.948 841.225 681.165 C 841.213 680.803 841.175 678.458 840.844 678.849 C 839.534 682.504 837.573 685.915 835.911 689.421 C 832.058 697.553 827.629 705.346 823.537 713.351 C 821.36 717.61 819.059 721.802 816.912 726.075 C 815.878 728.133 815.016 730.812 813.584 732.612 C 812.806 733.072 811.107 732.821 810.211 732.831 C 807.225 732.863 804.138 732.941 801.17 732.639 C 800.007 731.55 799.295 729.567 798.566 728.153 C 797.097 725.304 795.57 722.485 794.13 719.621 C 789.459 710.331 784.752 701.058 779.857 691.884 C 778.17 688.723 776.472 685.582 774.886 682.372 C 774.581 681.754 773.645 679.225 773.234 679.39 C 772.465 690.811 773.381 702.549 773.378 714.006 C 773.375 725.019 772.44 736.384 773.356 747.358 C 770.663 746.972 767.719 747.197 765.001 747.201 C 761.691 747.206 758.27 747.005 754.979 747.375 C 754.311 744.528 754.862 740.925 754.88 737.999 C 754.919 731.665 754.925 725.329 754.928 718.995 C 754.936 703.821 754.969 688.668 754.923 673.495 C 754.898 665.392 755.25 657.223 754.654 649.146 Z" opacity="1" fill="rgb(14,16,20)" fill-rule="evenodd"/>
<path d=" M 884.163 649.302 C 889.27 649.255 894.389 649.37 899.501 649.278 C 901.181 649.248 904.5 648.655 905.94 649.42 C 906.353 650.766 907.401 652.025 908.158 653.213 C 909.479 655.289 910.671 657.458 911.924 659.576 C 916.418 667.176 921.039 674.703 925.448 682.355 C 926.997 685.045 928.583 687.712 930.164 690.383 C 930.574 691.075 931.206 692.833 931.92 693.107 C 934.62 688.768 936.965 684.009 939.592 679.571 C 945.57 669.468 951.893 659.637 957.477 649.306 C 959.049 648.98 960.899 649.212 962.511 649.2 C 966.179 649.174 969.846 649.227 973.514 649.234 C 975.315 649.238 978.267 648.672 979.93 649.311 C 979.282 650.989 977.82 652.391 976.841 653.896 C 974.996 656.733 973.195 659.605 971.425 662.488 C 964.507 673.758 957.378 684.923 950.252 696.063 C 948.282 699.142 946.276 702.194 944.263 705.244 C 943.303 706.697 941.913 708.327 941.375 709.99 C 940.999 711.151 941.188 712.573 941.195 713.777 C 941.208 716.353 941.236 718.929 941.237 721.505 C 941.241 730.127 941.277 738.752 941.293 747.372 C 935.194 746.962 927.992 746.314 921.954 747.393 C 921.704 745.097 922.29 742.365 922.287 740.007 C 922.28 733.34 922.254 726.672 922.242 720.005 C 922.238 717.77 922.246 715.535 922.309 713.3 C 922.339 712.216 922.585 710.801 922.047 709.803 C 920.393 706.732 918.118 703.918 916.319 700.918 C 909.289 689.196 901.883 677.73 894.663 666.128 C 892.516 662.679 890.395 659.16 888.075 655.825 C 886.592 653.694 884.794 651.887 884.163 649.302 Z" opacity="1" fill="rgb(13,15,19)" fill-rule="evenodd"/>

</svg>